SplineFontDB: 3.2
FontName: NMSExpeditionAlphabet
FullName: NMS Expedition Alphabet
FamilyName: NMSExpeditionAlphabet
Weight: Regular
Copyright: Copyright (c) 2021, Kurt Lourens
UComments: "2021-9-14: Created with FontForge (http://fontforge.org)"
Version: 0.0.3
ItalicAngle: 0
UnderlinePosition: -100
UnderlineWidth: 50
Ascent: 800
Descent: 200
InvalidEm: 0
LayerCount: 2
Layer: 0 0 "Back" 1
Layer: 1 0 "Fore" 0
XUID: [1021 508 -1748510224 4247]
StyleMap: 0x0000
FSType: 0
OS2Version: 0
OS2_WeightWidthSlopeOnly: 0
OS2_UseTypoMetrics: 1
CreationTime: 1631608426
ModificationTime: 1631612115
OS2TypoAscent: 0
OS2TypoAOffset: 1
OS2TypoDescent: 0
OS2TypoDOffset: 1
OS2TypoLinegap: 90
OS2WinAscent: 0
OS2WinAOffset: 1
OS2WinDescent: 0
OS2WinDOffset: 1
HheadAscent: 0
HheadAOffset: 1
HheadDescent: 0
HheadDOffset: 1
MarkAttachClasses: 1
DEI: 91125
Encoding: ISO8859-1
UnicodeInterp: none
NameList: AGL For New Fonts
DisplaySize: -48
AntiAlias: 1
FitToEm: 0
WinInfo: 0 26 7
BeginPrivate: 0
EndPrivate
BeginChars: 256 65

StartChar: A
Encoding: 65 65 0
Width: 1000
Flags: H
LayerCount: 2
Fore
SplineSet
190 410 m 1
 190 -210 l 1
 510 -210 l 1
 510 -148.046549479 510 -86.0930989583 510 -24.1396484375 c 1
 571.953125 -86.0927734375 633.907226562 -148.046875 695.860351562 -210 c 1
 910 -210 l 1
 910 4.1396484375 l 1
 504.139648438 410 l 1
 190 410 l 1
  Spiro
    190 410 v
    190 -210 v
    510 -210 v
    510 -24.1396 v
    695.86 -210 v
    910 -210 v
    910 4.13965 v
    504.14 410 v
    0 0 z
  EndSpiro
EndSplineSet
Validated: 524297
EndChar

StartChar: B
Encoding: 66 66 1
Width: 1000
Flags: H
LayerCount: 2
Fore
SplineSet
190 410 m 1
 190 -210 l 1
 404.139648438 -210 l 1
 810 195.860351562 l 1
 810 410 l 1
 190 410 l 1
EndSplineSet
Validated: 524297
EndChar

StartChar: C
Encoding: 67 67 2
Width: 1000
Flags: H
LayerCount: 2
Fore
SplineSet
170 -210 m 1
 830 -210 l 1
 830 10 l 1
 170 10 l 1
 170 -210 l 1
170 170 m 1
 830 170 l 1
 830 390 l 1
 170 390 l 1
 170 170 l 1
EndSplineSet
Validated: 9
EndChar

StartChar: D
Encoding: 68 68 3
Width: 1000
Flags: H
LayerCount: 2
Fore
SplineSet
190 -202 m 5
 410 -202 l 5
 410 410 l 1
 190 410 l 1
 190 -202 l 5
590 190 m 1
 810 190 l 1
 810 410 l 1
 590 410 l 1
 590 190 l 1
EndSplineSet
EndChar

StartChar: E
Encoding: 69 69 4
Width: 1000
Flags: H
LayerCount: 2
Fore
SplineSet
610 -10 m 1
 610 124.139648438 l 1
 475.860351562 -10 l 1
 610 -10 l 1
810 -210 m 1
 810 410 l 1
 595.860351562 410 l 1
 190 4.1396484375 l 1
 190 -210 l 1
 810 -210 l 1
EndSplineSet
Validated: 524297
EndChar

StartChar: F
Encoding: 70 70 5
Width: 1000
Flags: H
LayerCount: 2
Fore
SplineSet
190 590 m 1
 410 590 l 1
 410 810 l 1
 190 810 l 1
 190 590 l 1
190 190 m 1
 810 190 l 1
 810 410 l 1
 190 410 l 1
 190 190 l 1
EndSplineSet
Validated: 9
EndChar

StartChar: G
Encoding: 71 71 6
Width: 1000
Flags: H
LayerCount: 2
Fore
SplineSet
290 -208 m 5
 510 -208 l 5
 510 410 l 1
 290 410 l 1
 290 -208 l 5
590 490 m 1
 810 490 l 1
 810 710 l 1
 590 710 l 1
 590 490 l 1
EndSplineSet
EndChar

StartChar: H
Encoding: 72 72 7
Width: 1000
Flags: H
LayerCount: 2
Fore
SplineSet
524.139648438 610 m 1
 390 610 l 1
 390 475.860351562 l 1
 524.139648438 610 l 1
190 810 m 1
 190 190 l 1
 404.139648438 190 l 1
 810 595.860351562 l 1
 810 810 l 1
 190 810 l 1
800 800 m 1025
190 -210 m 1
 410 -210 l 1
 410 10 l 1
 190 10 l 1
 190 -210 l 1
EndSplineSet
Validated: 524297
EndChar

StartChar: I
Encoding: 73 73 8
Width: 1000
Flags: H
LayerCount: 2
Fore
SplineSet
390 190 m 1
 610 190 l 1
 610 410 l 1
 390 410 l 1
 390 190 l 1
390 -210 m 1
 610 -210 l 1
 610 10 l 1
 390 10 l 1
 390 -210 l 1
EndSplineSet
Validated: 9
EndChar

StartChar: J
Encoding: 74 74 9
Width: 1000
Flags: H
LayerCount: 2
Fore
SplineSet
190 190 m 1
 810 190 l 1
 810 410 l 1
 190 410 l 1
 190 190 l 1
590 -210 m 1
 810 -210 l 1
 810 10 l 1
 590 10 l 1
 590 -210 l 1
EndSplineSet
Validated: 9
EndChar

StartChar: K
Encoding: 75 75 10
Width: 1000
Flags: H
LayerCount: 2
Fore
SplineSet
590 -208 m 5
 810 -208 l 5
 810 410 l 1
 590 410 l 1
 590 -208 l 5
290 490 m 1
 510 490 l 1
 510 710 l 1
 290 710 l 1
 290 490 l 1
EndSplineSet
EndChar

StartChar: L
Encoding: 76 76 11
Width: 1000
Flags: H
LayerCount: 2
Fore
SplineSet
190 4.1396484375 m 1
 190 -210 l 1
 404.139648438 -210 l 1
 810 195.860351562 l 1
 810 410 l 1
 595.860351562 410 l 1
 190 4.1396484375 l 1
EndSplineSet
Validated: 524297
EndChar

StartChar: a
Encoding: 97 97 12
Width: 1000
Flags: HW
LayerCount: 2
Fore
SplineSet
190 410 m 1
 190 -210 l 1
 510 -210 l 1
 510 -148.046875 510 -86.0927734375 510 -24.1396484375 c 1
 571.953125 -86.0927734375 633.907226562 -148.046875 695.860351562 -210 c 1
 910 -210 l 1
 910 4.1396484375 l 1
 504.139648438 410 l 1
 190 410 l 1
EndSplineSet
Validated: 524297
EndChar

StartChar: M
Encoding: 77 77 13
Width: 1000
Flags: H
LayerCount: 2
Fore
SplineSet
240 -214 m 1
 460 -214 l 1
 460 410 l 1
 240 410 l 1
 240 -214 l 1
540 -217 m 1
 608.2109375 -217 684.15625 -217 760 -217 c 1
 760 410 l 1
 540 410 l 1
 540 -217 l 1
EndSplineSet
EndChar

StartChar: N
Encoding: 78 78 14
Width: 1000
Flags: H
LayerCount: 2
Fore
SplineSet
390 -214 m 5
 610 -214 l 5
 610 410 l 1
 390 410 l 1
 390 -214 l 5
390 490 m 1
 610 490 l 1
 610 710 l 1
 390 710 l 1
 390 490 l 1
EndSplineSet
EndChar

StartChar: O
Encoding: 79 79 15
Width: 1000
Flags: H
LayerCount: 2
Fore
SplineSet
140 410 m 1
 140 -210 l 1
 360 -210 l 1
 360 -76.6669921875 360 56.6669921875 360 190 c 1
 526.666992188 190 693.333007812 190 860 190 c 1
 860 410 l 1
 140 410 l 1
EndSplineSet
Validated: 524297
EndChar

StartChar: P
Encoding: 80 80 16
Width: 1000
Flags: H
LayerCount: 2
Fore
SplineSet
210 -190 m 1025
890 -190 m 1025
600 400 m 1
 900 400 l 1
 900 -200 l 1
 600 -200 l 1
 600 0 l 1
 400 -200 l 1
 200 -200 l 1
 200 0 l 1
 600 400 l 1
EndSplineSet
Validated: 1
EndChar

StartChar: Q
Encoding: 81 81 17
Width: 1000
Flags: H
LayerCount: 2
Fore
SplineSet
190 -211 m 5
 410 -211 l 5
 410 410 l 1
 190 410 l 1
 190 -211 l 5
590 -210 m 1
 810 -210 l 1
 810 10 l 1
 590 10 l 1
 590 -210 l 1
EndSplineSet
Validated: 9
EndChar

StartChar: R
Encoding: 82 82 18
Width: 1000
Flags: H
LayerCount: 2
Fore
SplineSet
190 -208 m 5
 410 -208 l 5
 410 410 l 1
 190 410 l 1
 190 -208 l 5
590 190 m 1
 810 190 l 1
 810 410 l 1
 590 410 l 1
 590 190 l 1
590 -210 m 1
 810 -210 l 1
 810 10 l 1
 590 10 l 1
 590 -210 l 1
EndSplineSet
EndChar

StartChar: S
Encoding: 83 83 19
Width: 1000
Flags: H
LayerCount: 2
Fore
SplineSet
140 410 m 1
 140 190 l 1
 234.126953125 190 328.254882812 190 422.381835938 190 c 1
 328.254882812 111.560546875 234.126953125 33.12109375 140 -45.318359375 c 1
 140 -210 l 1
 303.505859375 -210 l 1
 810 195.1953125 l 1
 810 410 l 1
 140 410 l 1
EndSplineSet
Validated: 524297
EndChar

StartChar: T
Encoding: 84 84 20
Width: 1000
Flags: H
LayerCount: 2
Fore
SplineSet
190 190 m 1
 810 190 l 1
 810 410 l 1
 190 410 l 1
 190 190 l 1
EndSplineSet
Validated: 9
EndChar

StartChar: U
Encoding: 85 85 21
Width: 1000
Flags: H
LayerCount: 2
Fore
SplineSet
290 90 m 1
 510 90 l 1
 510 810 l 1
 290 810 l 1
 290 90 l 1
590 -210 m 1
 810 -210 l 1
 810 10 l 1
 590 10 l 1
 590 -210 l 1
EndSplineSet
Validated: 9
EndChar

StartChar: V
Encoding: 86 86 22
Width: 1000
Flags: H
LayerCount: 2
Fore
SplineSet
190 190 m 1
 410 190 l 1
 410 410 l 1
 190 410 l 1
 190 190 l 1
590 -210 m 1
 810 -210 l 1
 810 10 l 1
 590 10 l 1
 590 -210 l 1
EndSplineSet
Validated: 9
EndChar

StartChar: W
Encoding: 87 87 23
Width: 1000
Flags: H
LayerCount: 2
Fore
SplineSet
590 590 m 1
 810 590 l 1
 810 810 l 1
 590 810 l 1
 590 590 l 1
190 190 m 1
 410 190 l 1
 410 410 l 1
 190 410 l 1
 190 190 l 1
590 -210 m 1
 810 -210 l 1
 810 10 l 1
 590 10 l 1
 590 -210 l 1
EndSplineSet
Validated: 9
EndChar

StartChar: X
Encoding: 88 88 24
Width: 1000
Flags: H
LayerCount: 2
Fore
SplineSet
190 810 m 1
 190 190 l 1
 810 190 l 1
 810 410 l 1
 676.666992188 410 543.333007812 410 410 410 c 1
 410 543.333007812 410 676.666992188 410 810 c 1
 190 810 l 1
590 -210 m 1
 810 -210 l 1
 810 10 l 1
 590 10 l 1
 590 -210 l 1
EndSplineSet
Validated: 524297
EndChar

StartChar: Y
Encoding: 89 89 25
Width: 1000
Flags: H
LayerCount: 2
Fore
SplineSet
140 410 m 1
 140 190 l 1
 306.666992188 190 473.333007812 190 640 190 c 1
 640 56.6669921875 640 -76.6669921875 640 -210 c 1
 860 -210 l 1
 860 410 l 1
 140 410 l 1
EndSplineSet
Validated: 524297
EndChar

StartChar: Z
Encoding: 90 90 26
Width: 1000
Flags: H
LayerCount: 2
Fore
SplineSet
190 190 m 1
 810 190 l 1
 810 410 l 1
 190 410 l 1
 190 190 l 1
190 -210 m 1
 410 -210 l 1
 410 10 l 1
 190 10 l 1
 190 -210 l 1
590 -210 m 1
 810 -210 l 1
 810 10 l 1
 590 10 l 1
 590 -210 l 1
EndSplineSet
Validated: 9
EndChar

StartChar: b
Encoding: 98 98 27
Width: 1000
Flags: HW
LayerCount: 2
Fore
SplineSet
190 410 m 1
 190 -210 l 1
 404.139648438 -210 l 1
 810 195.860351562 l 1
 810 410 l 1
 190 410 l 1
EndSplineSet
Validated: 524297
EndChar

StartChar: c
Encoding: 99 99 28
Width: 1000
Flags: HW
LayerCount: 2
Fore
SplineSet
170 -210 m 1
 830 -210 l 1
 830 10 l 1
 170 10 l 1
 170 -210 l 1
170 170 m 1
 830 170 l 1
 830 390 l 1
 170 390 l 1
 170 170 l 1
EndSplineSet
Validated: 9
EndChar

StartChar: d
Encoding: 100 100 29
Width: 1000
Flags: HW
LayerCount: 2
Fore
SplineSet
190 -202 m 5
 410 -202 l 5
 410 410 l 1
 190 410 l 1
 190 -202 l 5
590 190 m 1
 810 190 l 1
 810 410 l 1
 590 410 l 1
 590 190 l 1
EndSplineSet
EndChar

StartChar: e
Encoding: 101 101 30
Width: 1000
Flags: HW
LayerCount: 2
Fore
SplineSet
610 -10 m 1
 610 124.139648438 l 1
 475.860351562 -10 l 1
 610 -10 l 1
810 -210 m 1
 810 410 l 1
 595.860351562 410 l 1
 190 4.1396484375 l 1
 190 -210 l 1
 810 -210 l 1
EndSplineSet
Validated: 524297
EndChar

StartChar: f
Encoding: 102 102 31
Width: 1000
Flags: HW
LayerCount: 2
Fore
SplineSet
190 590 m 1
 410 590 l 1
 410 810 l 1
 190 810 l 1
 190 590 l 1
190 190 m 1
 810 190 l 1
 810 410 l 1
 190 410 l 1
 190 190 l 1
EndSplineSet
Validated: 9
EndChar

StartChar: g
Encoding: 103 103 32
Width: 1000
Flags: HW
LayerCount: 2
Fore
SplineSet
290 -208 m 5
 510 -208 l 5
 510 410 l 1
 290 410 l 1
 290 -208 l 5
590 490 m 1
 810 490 l 1
 810 710 l 1
 590 710 l 1
 590 490 l 1
EndSplineSet
EndChar

StartChar: h
Encoding: 104 104 33
Width: 1000
Flags: HW
LayerCount: 2
Fore
SplineSet
524.139648438 610 m 1
 390 610 l 1
 390 475.860351562 l 1
 524.139648438 610 l 1
190 810 m 1
 190 190 l 1
 404.139648438 190 l 1
 810 595.860351562 l 1
 810 810 l 1
 190 810 l 1
800 800 m 1025
190 -210 m 1
 410 -210 l 1
 410 10 l 1
 190 10 l 1
 190 -210 l 1
EndSplineSet
Validated: 524297
EndChar

StartChar: i
Encoding: 105 105 34
Width: 1000
Flags: HW
LayerCount: 2
Fore
SplineSet
390 190 m 1
 610 190 l 1
 610 410 l 1
 390 410 l 1
 390 190 l 1
390 -210 m 1
 610 -210 l 1
 610 10 l 1
 390 10 l 1
 390 -210 l 1
EndSplineSet
Validated: 9
EndChar

StartChar: j
Encoding: 106 106 35
Width: 1000
Flags: HW
LayerCount: 2
Fore
SplineSet
190 190 m 1
 810 190 l 1
 810 410 l 1
 190 410 l 1
 190 190 l 1
590 -210 m 1
 810 -210 l 1
 810 10 l 1
 590 10 l 1
 590 -210 l 1
EndSplineSet
Validated: 9
EndChar

StartChar: k
Encoding: 107 107 36
Width: 1000
Flags: HW
LayerCount: 2
Fore
SplineSet
290 -208 m 5
 510 -208 l 5
 510 410 l 1
 290 410 l 1
 290 -208 l 5
590 490 m 1
 810 490 l 1
 810 710 l 1
 590 710 l 1
 590 490 l 1
EndSplineSet
EndChar

StartChar: l
Encoding: 108 108 37
Width: 1000
Flags: HW
LayerCount: 2
Fore
SplineSet
190 4.1396484375 m 1
 190 -210 l 1
 404.139648438 -210 l 1
 810 195.860351562 l 1
 810 410 l 1
 595.860351562 410 l 1
 190 4.1396484375 l 1
EndSplineSet
Validated: 524297
EndChar

StartChar: m
Encoding: 109 109 38
Width: 1000
Flags: HW
LayerCount: 2
Fore
SplineSet
240 -214 m 1
 460 -214 l 1
 460 410 l 1
 240 410 l 1
 240 -214 l 1
540 -217 m 1
 608.2109375 -217 684.15625 -217 760 -217 c 1
 760 410 l 1
 540 410 l 1
 540 -217 l 1
EndSplineSet
EndChar

StartChar: n
Encoding: 110 110 39
Width: 1000
Flags: HW
LayerCount: 2
Fore
SplineSet
390 -214 m 5
 610 -214 l 5
 610 410 l 1
 390 410 l 1
 390 -214 l 5
390 490 m 1
 610 490 l 1
 610 710 l 1
 390 710 l 1
 390 490 l 1
EndSplineSet
EndChar

StartChar: o
Encoding: 111 111 40
Width: 1000
Flags: HW
LayerCount: 2
Fore
SplineSet
140 410 m 1
 140 -210 l 1
 360 -210 l 1
 360 -76.6669921875 360 56.6669921875 360 190 c 1
 526.666992188 190 693.333007812 190 860 190 c 1
 860 410 l 1
 140 410 l 1
EndSplineSet
Validated: 524297
EndChar

StartChar: p
Encoding: 112 112 41
Width: 1000
Flags: HW
LayerCount: 2
Fore
SplineSet
210 -190 m 1025
890 -190 m 1025
600 400 m 1
 900 400 l 1
 900 -200 l 1
 600 -200 l 1
 600 0 l 1
 400 -200 l 1
 200 -200 l 1
 200 0 l 1
 600 400 l 1
EndSplineSet
Validated: 1
EndChar

StartChar: q
Encoding: 113 113 42
Width: 1000
Flags: HW
LayerCount: 2
Fore
SplineSet
190 -211 m 5
 410 -211 l 5
 410 410 l 1
 190 410 l 1
 190 -211 l 5
590 -210 m 1
 810 -210 l 1
 810 10 l 1
 590 10 l 1
 590 -210 l 1
EndSplineSet
Validated: 9
EndChar

StartChar: r
Encoding: 114 114 43
Width: 1000
Flags: HW
LayerCount: 2
Fore
SplineSet
190 -208 m 5
 410 -208 l 5
 410 410 l 1
 190 410 l 1
 190 -208 l 5
590 190 m 1
 810 190 l 1
 810 410 l 1
 590 410 l 1
 590 190 l 1
590 -210 m 1
 810 -210 l 1
 810 10 l 1
 590 10 l 1
 590 -210 l 1
EndSplineSet
EndChar

StartChar: s
Encoding: 115 115 44
Width: 1000
Flags: HW
LayerCount: 2
Fore
SplineSet
140 410 m 1
 140 190 l 1
 234.126953125 190 328.254882812 190 422.381835938 190 c 1
 328.254882812 111.560546875 234.126953125 33.12109375 140 -45.318359375 c 1
 140 -210 l 1
 303.505859375 -210 l 1
 810 195.1953125 l 1
 810 410 l 1
 140 410 l 1
EndSplineSet
Validated: 524297
EndChar

StartChar: t
Encoding: 116 116 45
Width: 1000
Flags: HW
LayerCount: 2
Fore
SplineSet
190 190 m 1
 810 190 l 1
 810 410 l 1
 190 410 l 1
 190 190 l 1
EndSplineSet
Validated: 9
EndChar

StartChar: u
Encoding: 117 117 46
Width: 1000
Flags: HW
LayerCount: 2
Fore
SplineSet
290 90 m 1
 510 90 l 1
 510 810 l 1
 290 810 l 1
 290 90 l 1
590 -210 m 1
 810 -210 l 1
 810 10 l 1
 590 10 l 1
 590 -210 l 1
EndSplineSet
Validated: 9
EndChar

StartChar: v
Encoding: 118 118 47
Width: 1000
Flags: HW
LayerCount: 2
Fore
SplineSet
190 190 m 1
 410 190 l 1
 410 410 l 1
 190 410 l 1
 190 190 l 1
590 -210 m 1
 810 -210 l 1
 810 10 l 1
 590 10 l 1
 590 -210 l 1
EndSplineSet
Validated: 9
EndChar

StartChar: w
Encoding: 119 119 48
Width: 1000
Flags: HW
LayerCount: 2
Fore
SplineSet
590 590 m 1
 810 590 l 1
 810 810 l 1
 590 810 l 1
 590 590 l 1
190 190 m 1
 410 190 l 1
 410 410 l 1
 190 410 l 1
 190 190 l 1
590 -210 m 1
 810 -210 l 1
 810 10 l 1
 590 10 l 1
 590 -210 l 1
EndSplineSet
Validated: 9
EndChar

StartChar: x
Encoding: 120 120 49
Width: 1000
Flags: HW
LayerCount: 2
Fore
SplineSet
190 810 m 1
 190 190 l 1
 810 190 l 1
 810 410 l 1
 676.666992188 410 543.333007812 410 410 410 c 1
 410 543.333007812 410 676.666992188 410 810 c 1
 190 810 l 1
590 -210 m 1
 810 -210 l 1
 810 10 l 1
 590 10 l 1
 590 -210 l 1
EndSplineSet
Validated: 524297
EndChar

StartChar: y
Encoding: 121 121 50
Width: 1000
Flags: HW
LayerCount: 2
Fore
SplineSet
140 410 m 1
 140 190 l 1
 306.666992188 190 473.333007812 190 640 190 c 1
 640 56.6669921875 640 -76.6669921875 640 -210 c 1
 860 -210 l 1
 860 410 l 1
 140 410 l 1
EndSplineSet
Validated: 524297
EndChar

StartChar: z
Encoding: 122 122 51
Width: 1000
Flags: HW
LayerCount: 2
Fore
SplineSet
190 190 m 1
 810 190 l 1
 810 410 l 1
 190 410 l 1
 190 190 l 1
190 -210 m 1
 410 -210 l 1
 410 10 l 1
 190 10 l 1
 190 -210 l 1
590 -210 m 1
 810 -210 l 1
 810 10 l 1
 590 10 l 1
 590 -210 l 1
EndSplineSet
Validated: 9
EndChar

StartChar: zero
Encoding: 48 48 52
Width: 1000
Flags: H
LayerCount: 2
Fore
SplineSet
190 -210 m 1
 810 -210 l 1
 810 10 l 1
 190 10 l 1
 190 -210 l 1
EndSplineSet
Validated: 9
EndChar

StartChar: one
Encoding: 49 49 53
Width: 1000
Flags: H
LayerCount: 2
Fore
SplineSet
190 190 m 1
 410 190 l 1
 410 410 l 1
 190 410 l 1
 190 190 l 1
190 -210 m 1
 810 -210 l 1
 810 10 l 1
 190 10 l 1
 190 -210 l 1
EndSplineSet
Validated: 9
EndChar

StartChar: two
Encoding: 50 50 54
Width: 1000
Flags: H
LayerCount: 2
Fore
SplineSet
190 190 m 1
 410 190 l 1
 410 410 l 1
 190 410 l 1
 190 190 l 1
590 190 m 1
 810 190 l 1
 810 410 l 1
 590 410 l 1
 590 190 l 1
190 -210 m 1
 810 -210 l 1
 810 10 l 1
 190 10 l 1
 190 -210 l 1
EndSplineSet
Validated: 9
EndChar

StartChar: three
Encoding: 51 51 55
Width: 1000
Flags: H
LayerCount: 2
Fore
SplineSet
190 590 m 1
 410 590 l 1
 410 810 l 1
 190 810 l 1
 190 590 l 1
190 190 m 1
 410 190 l 1
 410 410 l 1
 190 410 l 1
 190 190 l 1
590 190 m 1
 810 190 l 1
 810 410 l 1
 590 410 l 1
 590 190 l 1
190 -210 m 1
 810 -210 l 1
 810 10 l 1
 190 10 l 1
 190 -210 l 1
EndSplineSet
Validated: 9
EndChar

StartChar: four
Encoding: 52 52 56
Width: 1000
Flags: H
LayerCount: 2
Fore
SplineSet
190 590 m 1
 410 590 l 1
 410 810 l 1
 190 810 l 1
 190 590 l 1
190 190 m 1
 410 190 l 1
 410 410 l 1
 190 410 l 1
 190 190 l 1
590 590 m 1
 810 590 l 1
 810 810 l 1
 590 810 l 1
 590 590 l 1
790 210 m 1
 610 210 l 1025
590 190 m 1
 810 190 l 1
 810 410 l 1
 590 410 l 1
 590 190 l 1
800 200 m 1
 600 200 l 1025
190 -210 m 1
 810 -210 l 1
 810 10 l 1
 190 10 l 1
 190 -210 l 1
EndSplineSet
Validated: 11
EndChar

StartChar: five
Encoding: 53 53 57
Width: 1000
Flags: H
LayerCount: 2
Fore
SplineSet
200 200 m 1
 200 800 l 1
 800 800 l 1
 800 200 l 1
 200 200 l 1
200 -200 m 1
 200 0 l 1
 800 0 l 1
 800 -200 l 1
 200 -200 l 1
EndSplineSet
Validated: 1
EndChar

StartChar: six
Encoding: 54 54 58
Width: 1000
Flags: H
LayerCount: 2
Fore
SplineSet
200 800 m 1
 800 800 l 1
 800 600 l 1
 400 600 l 1
 400 200 l 1
 200 200 l 1
 200 800 l 1
200 -200 m 1
 200 0 l 1
 800 0 l 1
 800 -200 l 1
 200 -200 l 1
EndSplineSet
Validated: 1
EndChar

StartChar: seven
Encoding: 55 55 59
Width: 1000
Flags: H
LayerCount: 2
Fore
SplineSet
200 200 m 1
 200 800 l 1
 400 800 l 1
 400 200 l 1
 200 200 l 1
200 -200 m 1
 200 0 l 1
 800 0 l 1
 800 -200 l 1
 200 -200 l 1
EndSplineSet
Validated: 1
EndChar

StartChar: eight
Encoding: 56 56 60
Width: 1000
Flags: H
LayerCount: 2
Fore
SplineSet
190 404.139648438 m 1
 190 190 l 1
 404.139648438 190 l 1
 810 595.860351562 l 1
 810 810 l 1
 595.860351562 810 l 1
 190 404.139648438 l 1
404.139648438 190 m 1026
200 -200 m 1
 200 0 l 1
 800 0 l 1
 800 -200 l 1
 200 -200 l 1
EndSplineSet
Validated: 524297
EndChar

StartChar: nine
Encoding: 57 57 61
Width: 1000
Flags: H
LayerCount: 2
Fore
SplineSet
210 790 m 1025
190 810 m 1025
810 190 m 1025
200 800 m 1
 400 800 l 1
 800 400 l 1
 800 200 l 1
 600 200 l 1
 200 600 l 1
 200 800 l 1
200 -200 m 1
 200 0 l 1
 800 0 l 1
 800 -200 l 1
 200 -200 l 1
EndSplineSet
Validated: 1
EndChar

StartChar: colon
Encoding: 58 58 62
Width: 1000
Flags: H
LayerCount: 2
Fore
SplineSet
390 490 m 1
 610 490 l 1
 610 710 l 1
 390 710 l 1
 390 490 l 1
390 -210 m 1
 610 -210 l 1
 610 10 l 1
 390 10 l 1
 390 -210 l 1
EndSplineSet
Validated: 9
EndChar

StartChar: period
Encoding: 46 46 63
Width: 1000
Flags: H
LayerCount: 2
Fore
SplineSet
390 -210 m 1
 610 -210 l 1
 610 10 l 1
 390 10 l 1
 390 -210 l 1
EndSplineSet
Validated: 9
EndChar

StartChar: space
Encoding: 32 32 64
Width: 1000
Flags: H
LayerCount: 2
Fore
SplineSet
302 399 m 1053
EndSplineSet
Validated: 1
EndChar
